<?xml version="1.0" encoding="UTF-8"?>
<svg id="Camada_1" data-name="Camada 1" xmlns="http://www.w3.org/2000/svg" viewBox="0 0 264 200">
  <g>
    <path d="M92.29,10.79l78.87-.08c9.77.92,18.43,7.59,20.54,17.35.96,24.29.13,48.73.42,73.07-.79,11.35-10,20.12-21.25,20.92-14.58,1.04-30.47-1.03-45.05,0-3.25.23-4.51,1.19-7.06,2.91-8.16,5.5-15.71,12.32-24.06,17.54-1.85.39-3.02-.09-3.72-1.84.13-6.13,1.58-12.2,2.1-18.32-10.26-1.38-18.77-8.09-20.89-18.44-.86-24.11-.11-48.38-.38-72.54.66-10.82,9.84-19.52,20.48-20.55Z" style="fill: #f0803f;"/>
    <path d="M129.58,43.15c-.08-1.23-1.22-2.28-2.14-2.99-7.92-6.07-16.59-7.33-23.65-7.13-2.2.06-5.82-.06-7.93.36-.59.12-1.46.78-2.02,1.32-.35.34-.54.8-.56,1.29-.39,14.5-.18,29.08-.17,43.63-.01,3.26-.03,6.53-.03,9.79.03.66-.06,1.06.47,1.45.2.15.45.25.7.3,2.81.56,5.82.08,8.68.23,6.89.35,14.24,2.13,20.56,4.8,1.52.64,3.31,1.95,4.69,2.48,0,0,0,0,.01,0,.49.18,1.03-.12,1.16-.63.11-.39.22-.85.22-1.09.19-17.94-.16-35.89,0-53.83Z" style="fill: #fedca1;"/>
    <path d="M100.56,51.21c-.9-.9-.4-2.87,1.06-3.21,2.31-.53,9.18.34,11.75.8,1.84.33,8.57,1.93,9.62,3.2.57.69.64,2.13-.16,2.68-1.32.91-5.52-1.12-7.24-1.55-2.24-.56-5.27-1.11-7.56-1.28-1.64-.12-6.45.4-7.48-.64Z" style="fill: #ef7d3b;"/>
    <path d="M102.14,60.44c5.4.2,10.59.49,15.81,2.01,1.65.48,8.27,2.39,4.78,4.89-1.41,1.01-2.99-.44-4.49-.9-3.58-1.11-7.3-1.75-11.04-2.07-1.67-.14-3.68.25-5.29-.13-2.48-.58-2.24-3.41.24-3.8Z" style="fill: #ee7c3a;"/>
    <path d="M100.56,76.27c-.18-.18-.31-.69-.34-.96-.23-2.79,2.06-2.47,4.13-2.41,4.87.15,11.4,1.14,15.96,2.85,1.19.45,3.45,1.04,3.28,2.7-.32,3.13-6.3.14-7.99-.28-2.12-.53-5.11-1.11-7.27-1.28-1.56-.12-6.8.31-7.77-.64Z" style="fill: #ef7d3b;"/>
    <path d="M121.57,98.86c-5.61-2.32-11.69-3.96-17.8-4.3-4.26-.24-8.8.82-12.68-1.14-1.54-.99-1.44-3.26-1.44-3.26v-48.56s-1.3.14-2.35.41c-.75.19-1.32.79-1.48,1.55l-.15.73v53.26c0,.34-.13,1.96,2.55,2.01l33.52.13c.5-.32-.19-.71-.16-.82Z" style="fill: #fedca1;"/>
    <path d="M134.37,43.15c.08-1.23,1.22-2.28,2.14-2.99,7.92-6.07,16.59-7.33,23.65-7.13,2.2.06,5.82-.06,7.93.36.59.12,1.46.78,2.02,1.32.35.34.54.8.56,1.29.39,14.5.18,29.08.17,43.63.01,3.26.03,6.53.03,9.79-.03.66.06,1.06-.47,1.45-.2.15-.45.25-.7.3-2.81.56-5.82.08-8.68.23-6.89.35-14.24,2.13-20.56,4.8-1.52.64-3.31,1.95-4.69,2.48,0,0,0,0-.01,0-.49.18-1.03-.12-1.16-.63-.11-.39-.22-.85-.22-1.09-.19-17.94.16-35.89,0-53.83Z" style="fill: #fedca1;"/>
    <path d="M163.38,51.21c.9-.9.4-2.87-1.06-3.21-2.31-.53-9.18.34-11.75.8-1.84.33-8.57,1.93-9.62,3.2-.57.69-.64,2.13.16,2.68,1.32.91,5.52-1.12,7.24-1.55,2.24-.56,5.27-1.11,7.56-1.28,1.64-.12,6.45.4,7.48-.64Z" style="fill: #ef7d3b;"/>
    <path d="M161.81,60.44c-5.4.2-10.59.49-15.81,2.01-1.65.48-8.27,2.39-4.78,4.89,1.41,1.01,2.99-.44,4.49-.9,3.58-1.11,7.3-1.75,11.04-2.07,1.67-.14,3.68.25,5.29-.13,2.48-.58,2.24-3.41-.24-3.8Z" style="fill: #ee7c3a;"/>
    <path d="M163.38,76.27c.18-.18.31-.69.34-.96.23-2.79-2.06-2.47-4.13-2.41-4.87.15-11.4,1.14-15.96,2.85-1.19.45-3.45,1.04-3.28,2.7.32,3.13,6.3.14,7.99-.28,2.12-.53,5.11-1.11,7.27-1.28,1.56-.12,6.8.31,7.77-.64Z" style="fill: #ef7d3b;"/>
    <path d="M142.37,98.86c5.61-2.32,11.69-3.96,17.8-4.3,4.26-.24,8.8.82,12.68-1.14,1.54-.99,1.44-3.26,1.44-3.26v-48.56s1.3.14,2.35.41c.75.19,1.32.79,1.48,1.55l.15.73v53.26c0,.34.13,1.96-2.55,2.01l-33.52.13c-.5-.32.19-.71.16-.82Z" style="fill: #fedca1;"/>
  </g>
  <g>
    <path d="M10.55,194.76v-28.84h5.81v3.16c1.07-2.41,2.96-3.61,5.64-3.61,2.32,0,4.22.94,5.7,2.81,1.48,1.87,2.22,4.59,2.22,8.17,0,3.8-.75,6.66-2.24,8.59-1.49,1.93-3.43,2.89-5.82,2.89s-4.15-.95-5.18-2.84v9.67h-6.13ZM16.68,178.05c0,1.52.09,2.58.28,3.16.18.58.57,1.11,1.17,1.57.59.46,1.24.69,1.93.69.86,0,1.63-.44,2.31-1.33.68-.89,1.02-2.85,1.02-5.88,0-4.25-1.12-6.38-3.35-6.38-.85,0-1.62.38-2.31,1.13-.69.75-1.04,2.04-1.04,3.84v3.2Z" style="fill: #f0803f;"/>
    <path d="M40.13,187.48h-6.13v-21.56h5.79v4.01c.89-2.99,2.43-4.48,4.63-4.48.31,0,.69.02,1.15.06v6.28c-1.29,0-2.29.2-3,.6-.71.4-1.3,1.11-1.75,2.15-.45,1.03-.68,2.42-.68,4.17v8.77Z" style="fill: #f0803f;"/>
    <path d="M57.96,165.47c3.26,0,5.81,1.07,7.64,3.22,1.83,2.15,2.75,4.84,2.75,8.07s-.95,5.85-2.85,7.97c-1.9,2.13-4.43,3.19-7.58,3.19s-5.49-1.05-7.32-3.16-2.74-4.81-2.74-8.11c0-2.29.41-4.24,1.24-5.84.83-1.6,1.96-2.89,3.4-3.88s3.26-1.47,5.47-1.47ZM58.13,169.64c-1.2,0-2.1.47-2.71,1.4-.61.93-.91,2.79-.91,5.56,0,2.55.29,4.38.87,5.49s1.48,1.67,2.71,1.67c1.07,0,1.94-.47,2.6-1.42s.99-2.75.99-5.41c0-2.83-.29-4.75-.88-5.76-.59-1.01-1.48-1.52-2.68-1.52Z" style="fill: #f0803f;"/>
    <path d="M88.82,165.92l-7.34,21.56h-4.92l-7.36-21.56h6.57l4.13,13.66,4.23-13.66h4.69Z" style="fill: #f0803f;"/>
    <path d="M110.28,177.77h-13.79c-.01.38-.02.72-.02,1,0,1.54.41,2.7,1.22,3.48.81.78,1.79,1.17,2.92,1.17,2.11,0,3.37-1.13,3.8-3.39l5.73.43c-1.6,4.98-4.85,7.47-9.74,7.47-2.14,0-3.95-.43-5.44-1.29-1.49-.86-2.72-2.12-3.69-3.77-.97-1.65-1.45-3.63-1.45-5.93,0-3.43.97-6.2,2.92-8.3s4.45-3.16,7.5-3.16c2.76,0,5.12.98,7.1,2.93,1.97,1.96,2.96,5.08,2.96,9.36ZM96.46,174.08h7.62c-.2-2.96-1.41-4.44-3.63-4.44-2.38,0-3.71,1.48-3.99,4.44Z" style="fill: #f0803f;"/>
    <path d="M120.4,187.48h-6.13v-21.56h5.79v4.01c.89-2.99,2.43-4.48,4.63-4.48.31,0,.69.02,1.15.06v6.28c-1.29,0-2.29.2-3,.6-.71.4-1.3,1.11-1.75,2.15-.45,1.03-.68,2.42-.68,4.17v8.77Z" style="fill: #f0803f;"/>
    <path d="M135.67,158.34v10.29c1.13-2.11,2.9-3.16,5.3-3.16s4.41,1,5.83,3c1.43,2,2.14,4.74,2.14,8.23s-.73,6.07-2.21,8.13c-1.47,2.06-3.59,3.1-6.36,3.1-1.44,0-2.62-.25-3.52-.75-.91-.5-1.82-1.5-2.74-3.01-.4.41-.87,1.52-1.41,3.31h-3.37v-29.14h6.32ZM135.67,178.94c0,1.51.31,2.65.94,3.42.63.77,1.38,1.15,2.26,1.15,1.05,0,1.91-.47,2.59-1.4.68-.93,1.02-2.74,1.02-5.43,0-3.06-.35-4.98-1.05-5.76-.7-.78-1.5-1.17-2.39-1.17-1.03,0-1.85.44-2.46,1.32-.61.88-.91,2.13-.91,3.76v4.12Z" style="fill: #f0803f;"/>
    <path d="M159.33,157.74v6.36h-6.32v-6.36h6.32ZM159.33,165.92v21.56h-6.32v-21.56h6.32Z" style="fill: #f0803f;"/>
    <path d="M183.22,187.48h-6.13c-.2-.85-.3-1.98-.3-3.37-1.07,1.54-2.14,2.56-3.21,3.06s-2.28.76-3.63.76c-2.01,0-3.63-.55-4.86-1.64s-1.85-2.57-1.85-4.42c0-1.35.36-2.6,1.08-3.74.72-1.14,1.88-2.03,3.47-2.68s4.5-1.13,8.73-1.44v-1.24c0-2.09-1.04-3.14-3.11-3.14-2.21,0-3.45,1.05-3.7,3.14l-5.83-.55c.38-2.45,1.53-4.18,3.46-5.21,1.92-1.03,4.1-1.54,6.54-1.54,1.46,0,2.83.17,4.12.51,1.29.34,2.29.85,3.01,1.54.72.68,1.21,1.41,1.46,2.17.25.76.38,2.09.38,3.98v9.78c0,1.88.13,3.22.38,4.04ZM176.52,177.15c-4.41.44-6.62,1.79-6.62,4.04,0,.75.23,1.41.7,1.95.47.55,1.13.82,1.99.82,1.11,0,2.05-.47,2.8-1.4.75-.93,1.13-2.08,1.13-3.45v-1.96Z" style="fill: #f0803f;"/>
    <path d="M206.69,187.48h-6.32v-12.1c0-1.47-.06-2.47-.17-3.01s-.39-1-.83-1.38-.99-.57-1.66-.57c-2.22,0-3.33,1.65-3.33,4.95v12.1h-6.32v-21.56h5.88v3.65c.98-1.74,1.94-2.85,2.89-3.35.95-.5,1.97-.75,3.08-.75,2.04,0,3.68.55,4.92,1.65,1.24,1.1,1.87,3.27,1.87,6.5v13.86Z" style="fill: #f0803f;"/>
    <path d="M230.14,158.34v29.14h-5.83v-3.37c-1.45,2.55-3.41,3.82-5.91,3.82s-4.23-.97-5.6-2.91-2.05-4.64-2.05-8.08.68-6.39,2.05-8.42c1.37-2.03,3.35-3.04,5.94-3.04,2.28,0,4.04.9,5.27,2.71v-9.84h6.13ZM224,174.95c0-3.39-1.02-5.08-3.07-5.08-2.44,0-3.66,2.39-3.66,7.17,0,4.26,1.14,6.38,3.43,6.38.88,0,1.65-.38,2.31-1.15.66-.77.99-1.86.99-3.29v-4.03Z" style="fill: #f0803f;"/>
    <path d="M244.23,165.47c3.26,0,5.81,1.07,7.64,3.22,1.83,2.15,2.75,4.84,2.75,8.07s-.95,5.85-2.85,7.97-4.43,3.19-7.58,3.19-5.49-1.05-7.32-3.16-2.75-4.81-2.75-8.11c0-2.29.41-4.24,1.24-5.84.83-1.6,1.96-2.89,3.4-3.88s3.26-1.47,5.47-1.47ZM244.4,169.64c-1.2,0-2.1.47-2.71,1.4-.61.93-.91,2.79-.91,5.56,0,2.55.29,4.38.87,5.49s1.48,1.67,2.71,1.67c1.07,0,1.94-.47,2.6-1.42s.99-2.75.99-5.41c0-2.83-.29-4.75-.88-5.76-.58-1.01-1.48-1.52-2.68-1.52Z" style="fill: #f0803f;"/>
  </g>
</svg>